# xmcd
#
# Track frame offsets:
#	182
#	11440
#	22200
#	32245
#	44672
#	57032
#	68442
#	80610
#	92457
#	104377
#
# Disc length: 1524 seconds
#
# Revision: 0
# Processed by: cddbd v1.4PL0 Copyright (c) Steve Scherf et al.
# Submitted via: EasyCDDAExtractor 4.5.0.2
#
DISCID=7805f20a
DTITLE=KITTY WELLS  - GREATEST HITS 
DYEAR=1993
DGENRE=COUNTRY
TTITLE0=HEARTBREAK USA 
TTITLE1=SEARCHING
TTITLE2=WHO'S SHOULDER WILL YOU CRY ON 
TTITLE3=RELEASE ME
TTITLE4=I'LL ALWAYS BE YOUR  FRAULEIN
TTITLE5=LEFT TO RIGHT 
TTITLE6=ON THE LONELY SIDE OF TOWN 
TTITLE7=AMIGO'S GUITAR
TTITLE8=I GAVE MY WEDDING DRESS AWAY
TTITLE9=I HEARD THE JUKEBOX PLAYING 
EXTD=
EXTT0=
EXTT1=
EXTT2=
EXTT3=
EXTT4=
EXTT5=
EXTT6=
EXTT7=
EXTT8=
EXTT9=
PLAYORDER=
